<svg viewBox="0 0 24 24" fill="currentColor">
  <path
    d="M11.2258 1.61213C11.5692 0.795957 12.726 0.795957 13.0696 1.61213L15.4294 7.21857C15.5745 7.56286 15.8998 7.79745 16.2722 7.82697L22.3748 8.31037C23.2646 8.38106 23.6235 9.49429 22.9424 10.0711L18.3099 13.9929C18.0217 14.2371 17.8953 14.6228 17.9838 14.99L19.4033 20.867C19.6114 21.7303 18.6745 22.4166 17.9141 21.9578L12.6658 18.7898C12.3479 18.5979 11.9504 18.5979 11.6326 18.7898L6.38479 21.9578C5.62451 22.4166 4.68744 21.7302 4.89544 20.867L6.31388 14.99C6.40233 14.6227 6.27589 14.2371 5.98762 13.9929L1.35545 10.0711C0.674151 9.49433 1.03201 8.38113 1.9217 8.31037L8.0242 7.82697C8.39666 7.79745 8.72184 7.56284 8.86692 7.21857L11.2258 1.61213Z" />
</svg>