<svg width="714" height="714" viewBox="0 0 714 714" fill="none" xmlns="http://www.w3.org/2000/svg">
<rect width="713.5" height="713.5" fill="#00EB5B"/>
<path d="M229.618 146.34C204.518 149.049 175.377 162.065 151.374 181.286C129.194 199.048 108.691 225.869 99.315 249.387C95.2286 259.636 93.5548 268.611 94.1001 277.345C94.6223 285.714 97.2721 292.073 103.09 298.922L103.357 299.236L103.357 299.237C105.031 301.208 105.789 302.101 106.63 302.908C107.327 303.575 108.079 304.184 109.455 305.297L109.723 305.514C118.214 312.384 131.295 316.139 140.72 314.414C146.495 313.356 149.241 311.44 151.181 307.114C152.122 305.017 152.188 303.985 151.932 295.571C151.423 278.924 154.24 265.172 161.776 247.502C169.169 230.169 178.542 215.8 192.019 201.142C199.084 193.457 212.38 186.174 215.152 188.47C215.606 188.846 215.945 189.985 215.945 191.134C215.945 194.851 214.549 198.698 199.384 236.746C192.953 252.882 191.418 256.783 185.968 270.851C179.135 288.488 175.524 297.912 173.606 303.12C170.833 310.65 163.469 329.854 162.756 331.414L162.733 331.465C162.641 331.669 162.562 331.841 162.459 331.996C161.89 332.853 160.562 333.209 151.923 335.525L151.528 335.63C125.744 342.543 115.537 347.966 111.297 357.008C109.302 361.261 108.672 364.691 108.672 371.292C108.672 383.016 113.417 391.532 119.949 391.532C120.619 391.532 124.449 389.914 128.46 387.937C135.65 384.393 144.786 380.513 145.941 380.513C146.956 380.513 146.601 382.809 144.671 388.717C141.886 397.244 135.372 422.066 132.019 436.918C126.767 460.194 127.466 466.333 136.688 477.875C140.817 483.044 145.647 486.781 152.58 490.175C159.243 493.436 164.771 494.899 171.829 495.27C180.095 495.705 185.932 493.963 190.933 489.57C194.261 486.647 195.602 483.062 198.065 470.497C200.376 458.709 202.638 448.569 205.928 435.254C209.961 418.933 224.905 368.774 226.086 367.596C227.094 366.59 270.059 365.477 271.809 366.412C272.465 366.762 272.7 367.26 272.481 367.829C271.165 371.244 262.848 406.286 259.632 421.964C249.5 471.364 250.287 505.542 262.104 529.265C270.483 546.084 282.331 555.939 301.837 562.309C313.645 566.165 319.651 567.007 335.314 567C349.99 566.994 354.186 566.517 365.156 563.611C386.655 557.917 410.112 545.489 431.589 528.417C442.884 519.438 447.286 514.477 447.25 509.463L447.818 508.95C448.119 508.771 448.463 508.675 448.814 508.672C449.164 508.67 449.51 508.76 449.814 508.934C450.118 509.108 450.37 509.36 450.545 509.664C454.689 516.852 458.834 524.041 462.979 531.232C463.133 531.5 463.347 531.727 463.605 531.896C463.864 532.066 464.158 532.172 464.465 532.208C464.772 532.243 465.083 532.206 465.373 532.1C465.663 531.994 465.924 531.821 466.135 531.596L480.171 516.631C481.039 515.706 481.67 514.586 482.011 513.365C482.351 512.145 482.391 510.86 482.128 509.621C480.33 501.135 478.531 492.637 476.73 484.129C476.587 483.442 476.63 482.729 476.855 482.065C477.08 481.4 477.478 480.807 478.01 480.347C484.078 475.107 490.396 470.164 496.964 465.519C505.371 459.565 514.138 454.134 523.216 449.259C524.141 448.762 525.156 448.454 526.202 448.353C527.248 448.252 528.303 448.361 529.306 448.671C530.31 448.982 531.241 449.489 532.045 450.163C532.85 450.837 533.512 451.664 533.992 452.596L566.139 514.991C566.283 515.272 566.493 515.515 566.751 515.698C567.01 515.881 567.308 516 567.622 516.043C567.936 516.087 568.256 516.054 568.554 515.949C568.853 515.843 569.122 515.667 569.337 515.435L583.174 500.673C583.989 499.803 584.596 498.761 584.95 497.624C585.304 496.487 585.395 495.285 585.217 494.107L572.465 410.285C572.269 408.993 572.398 407.673 572.84 406.443C573.282 405.213 574.022 404.112 574.995 403.238C576.869 401.558 578.734 399.87 580.592 398.175C582.686 396.262 584.719 394.288 586.69 392.252C589.338 389.526 591.865 386.69 594.272 383.744C605.014 370.586 613.122 355.492 618.155 339.283C619.283 335.662 620.107 331.62 619.989 327.806C619.87 323.991 618.813 320.011 615.833 317.232C612.852 314.452 608.839 313.668 604.977 313.805C601.115 313.942 597.153 315.01 593.604 316.371C577.723 322.471 563.166 331.559 550.724 343.14C548.292 345.402 545.949 347.749 543.697 350.178C541.444 352.608 539.28 355.118 537.205 357.708C535.635 359.671 534.073 361.641 532.518 363.617C531.711 364.645 530.66 365.457 529.459 365.979C528.259 366.502 526.947 366.718 525.642 366.609L440.944 359.547C439.755 359.449 438.559 359.62 437.445 360.048C436.331 360.476 435.329 361.15 434.514 362.019C429.898 366.941 425.286 371.864 420.677 376.786C420.46 377.016 420.302 377.295 420.216 377.599C420.13 377.904 420.119 378.224 420.184 378.533C420.249 378.843 420.387 379.132 420.588 379.376C420.788 379.621 421.045 379.814 421.336 379.939L485.923 407.738C486.889 408.152 487.762 408.755 488.491 409.51C489.22 410.266 489.79 411.159 490.169 412.137C490.548 413.115 490.727 414.159 490.696 415.207C490.665 416.255 490.425 417.286 489.989 418.241C485.72 427.603 480.877 436.694 475.489 445.463C471.293 452.289 466.774 458.906 461.931 465.316C461.507 465.879 460.939 466.318 460.286 466.587C459.633 466.857 458.92 466.947 458.221 466.847L432.362 463.184C431.104 463.007 429.822 463.134 428.624 463.555C427.425 463.977 426.346 464.679 425.477 465.604L411.441 480.579C411.231 480.805 411.076 481.077 410.99 481.373C410.903 481.669 410.888 481.981 410.944 482.284C411 482.587 411.126 482.873 411.313 483.119C411.5 483.364 411.742 483.563 412.019 483.699L432.907 493.871C433.194 494.012 433.442 494.221 433.631 494.478C433.819 494.736 433.942 495.036 433.989 495.352C434.035 495.667 434.004 495.99 433.898 496.291C433.816 496.526 433.689 496.743 433.526 496.93C431.283 497.504 428.035 499.068 421.817 502.283C409.33 508.739 398.485 511.971 384.744 513.329C366.896 515.093 349.934 510.607 340.544 501.638C335.759 497.068 331.138 488.732 328.808 480.468C326.596 472.625 326.193 468.083 326.532 454.787C326.917 439.635 328.054 431.368 332.995 407.797C338.118 383.36 349.367 345.318 359.76 317.287C360.83 314.401 362.887 308.852 364.33 304.956C366.753 298.419 368.484 294.107 376.862 273.737C388.65 245.074 402.014 217.225 415.257 193.72C419.241 186.65 422.788 179.895 423.14 178.709C424.218 175.075 423.619 169.321 421.75 165.36C419.265 160.089 415.728 156.956 408.145 153.304C384.839 142.081 369.012 143.962 359.183 159.123C356.81 162.783 338.671 198.267 334.255 207.887C332.997 210.629 330.216 216.65 328.075 221.267C316.075 247.15 292.128 305.533 287.937 319.123C287.27 321.288 286.506 323.354 286.239 323.714C285.865 324.222 280.602 324.37 263.032 324.37C250.535 324.37 240.177 324.237 240.014 324.075C239.852 323.913 240.043 322.91 240.44 321.845C240.836 320.781 244.141 311.882 247.783 302.071C251.425 292.259 255.443 281.516 256.713 278.197C262.827 262.216 271.772 239.163 279.413 219.693C286.573 201.448 287.987 195.966 287.987 186.449C287.987 170.453 278.974 157.725 262.877 150.992C253.382 147.02 240.284 145.188 229.618 146.34Z" fill="#002B11"/>
</svg>
